<?xml version="1.0" standalone="no"?>
<!DOCTYPE svg PUBLIC "-//W3C//DTD SVG 20010904//EN"
 "http://www.w3.org/TR/2001/REC-SVG-20010904/DTD/svg10.dtd">
<svg version="1.0" xmlns="http://www.w3.org/2000/svg"
 width="512.000000pt" height="512.000000pt" viewBox="0 0 512.000000 512.000000"
 preserveAspectRatio="xMidYMid meet">
<metadata>
Created by potrace 1.12, written by Peter Selinger 2001-2015
</metadata>
<g transform="translate(0.000000,512.000000) scale(0.100000,-0.100000)"
fill="#424242" stroke="none">
<path d="M2050 3330 c-277 -35 -441 -145 -640 -430 -141 -203 -202 -280 -277
-355 -122 -121 -225 -178 -375 -209 -263 -54 -457 34 -515 233 -19 66 -13 139
17 208 24 57 64 99 130 138 l45 27 -45 -6 c-119 -17 -209 -73 -277 -173 -81
-121 -112 -261 -92 -408 50 -365 379 -548 1029 -571 597 -22 1165 133 1453
396 l57 52 57 -52 c288 -263 856 -418 1453 -396 650 23 979 206 1029 571 20
147 -11 287 -92 408 -68 100 -158 156 -277 173 l-45 6 45 -27 c66 -39 106 -81
130 -138 30 -69 36 -142 17 -208 -58 -199 -252 -287 -515 -233 -244 50 -370
159 -652 564 -52 74 -125 165 -162 202 -156 157 -339 230 -583 231 -106 1
-129 -2 -198 -26 -78 -27 -144 -63 -184 -100 l-23 -20 -22 20 c-107 97 -303
147 -488 123z"/>
</g>
</svg>
